<svg width="18" height="18" viewBox="0 0 18 18" fill="none" xmlns="http://www.w3.org/2000/svg">
<path d="M16.5002 6.48751C16.4337 5.53913 16.0094 4.65143 15.3132 4.00398C14.6171 3.35653 13.701 2.99768 12.7502 3.00001H5.25024C4.28856 2.99871 3.36314 3.36692 2.66522 4.02854C1.96731 4.69017 1.55025 5.59463 1.50024 6.55501C1.49601 6.61994 1.49601 6.68508 1.50024 6.75001V12.375C1.49825 12.7203 1.56479 13.0625 1.69601 13.3819C1.82722 13.7013 2.0205 13.9915 2.26465 14.2356C2.5088 14.4798 2.79897 14.673 3.11835 14.8042C3.43773 14.9355 3.77997 15.002 4.12524 15C5.19774 15 5.86524 14.205 6.51774 13.4325C6.75774 13.155 7.00524 12.8625 7.26774 12.6075C7.61599 12.3524 8.00719 12.1619 8.42274 12.045C8.80643 12 9.19406 12 9.57774 12.045C9.9933 12.1619 10.3845 12.3524 10.7327 12.6075C10.9952 12.8625 11.2427 13.155 11.4827 13.4325C12.1352 14.1825 12.8027 15 13.8752 15C14.2205 15.002 14.5628 14.9355 14.8821 14.8042C15.2015 14.673 15.4917 14.4798 15.7358 14.2356C15.98 13.9915 16.1733 13.7013 16.3045 13.3819C16.4357 13.0625 16.5022 12.7203 16.5002 12.375V6.75001C16.5043 6.68507 16.5043 6.61995 16.5002 6.55501V6.48751ZM15.0002 12.375C15.0002 12.6734 14.8817 12.9595 14.6707 13.1705C14.4598 13.3815 14.1736 13.5 13.8752 13.5C13.5002 13.5 13.1252 13.02 12.6302 12.465C12.3752 12.1725 12.0902 11.8275 11.7677 11.52C11.2247 11.0825 10.5963 10.7632 9.92274 10.5825C9.31266 10.4725 8.68782 10.4725 8.07774 10.5825C7.4042 10.7632 6.77579 11.0825 6.23274 11.52C5.91024 11.8275 5.62524 12.1725 5.37024 12.465C4.90524 13.02 4.50024 13.5 4.12524 13.5C3.82687 13.5 3.54073 13.3815 3.32975 13.1705C3.11877 12.9595 3.00024 12.6734 3.00024 12.375V6.75001C3.0039 6.7126 3.0039 6.67492 3.00024 6.63751C3.02913 6.06049 3.27888 5.51668 3.69774 5.11876C4.11661 4.72084 4.6725 4.49929 5.25024 4.50001H12.7502C13.3123 4.49756 13.855 4.70557 14.2714 5.08311C14.6878 5.46066 14.9478 5.98038 15.0002 6.54001V6.63001C14.9965 6.66992 14.9965 6.7101 15.0002 6.75001V12.375Z" fill="#F8F8F8"/>
<path d="M12 9.75C12.4142 9.75 12.75 9.41421 12.75 9C12.75 8.58579 12.4142 8.25 12 8.25C11.5858 8.25 11.25 8.58579 11.25 9C11.25 9.41421 11.5858 9.75 12 9.75Z" fill="#F8F8F8"/>
<path d="M13.5 8.25C13.9142 8.25 14.25 7.91421 14.25 7.5C14.25 7.08579 13.9142 6.75 13.5 6.75C13.0858 6.75 12.75 7.08579 12.75 7.5C12.75 7.91421 13.0858 8.25 13.5 8.25Z" fill="#F8F8F8"/>
<path d="M12 6.75C12.4142 6.75 12.75 6.41421 12.75 6C12.75 5.58579 12.4142 5.25 12 5.25C11.5858 5.25 11.25 5.58579 11.25 6C11.25 6.41421 11.5858 6.75 12 6.75Z" fill="#F8F8F8"/>
<path d="M10.5 8.25C10.9142 8.25 11.25 7.91421 11.25 7.5C11.25 7.08579 10.9142 6.75 10.5 6.75C10.0858 6.75 9.75 7.08579 9.75 7.5C9.75 7.91421 10.0858 8.25 10.5 8.25Z" fill="#F8F8F8"/>
<path d="M6 9C6.82843 9 7.5 8.32843 7.5 7.5C7.5 6.67157 6.82843 6 6 6C5.17157 6 4.5 6.67157 4.5 7.5C4.5 8.32843 5.17157 9 6 9Z" fill="#F8F8F8"/>
</svg>
