<svg width="16" height="16" viewBox="0 0 16 16" fill="none" xmlns="http://www.w3.org/2000/svg">
<path fill-rule="evenodd" clip-rule="evenodd" d="M13.8182 0H2.18182C0.976833 0 0 0.976833 0 2.18182V12.3636C0 13.5686 0.976833 14.5455 2.18182 14.5455H3.63636V15.2727C3.63636 15.6744 3.96197 16 4.36364 16C4.7653 16 5.09091 15.6744 5.09091 15.2727V14.5455H10.9091V15.2727C10.9091 15.6744 11.2347 16 11.6364 16C12.038 16 12.3636 15.6744 12.3636 15.2727V14.5455H13.8182C15.0232 14.5455 16 13.5686 16 12.3636V2.18182C16 0.976833 15.0232 0 13.8182 0ZM14.5463 12.3636C14.5463 12.7653 14.2207 13.0909 13.819 13.0909H2.18263C1.78097 13.0909 1.45536 12.7653 1.45536 12.3636V2.18179C1.45536 1.78013 1.78097 1.45452 2.18263 1.45452H13.819C14.2207 1.45452 14.5463 1.78013 14.5463 2.18179V12.3636Z" fill="#5D81FF"/>
<path d="M8.25337 8.72721C9.0567 8.72721 9.70792 8.07598 9.70792 7.27266C9.70792 6.46934 9.0567 5.81812 8.25337 5.81812C7.45005 5.81812 6.79883 6.46934 6.79883 7.27266C6.79883 8.07598 7.45005 8.72721 8.25337 8.72721Z" fill="#5D81FF"/>
<path fill-rule="evenodd" clip-rule="evenodd" d="M11.81 9.79642C12.8817 8.28466 12.8817 6.2609 11.81 4.74914L12.6173 3.9346C12.8248 3.75686 12.9152 3.47779 12.8513 3.21211C12.7874 2.94644 12.58 2.73901 12.3143 2.6751C12.0486 2.61119 11.7695 2.7016 11.5918 2.90914L10.7773 3.71642C9.2655 2.64471 7.24173 2.64471 5.72998 3.71642L4.91543 2.90914C4.62688 2.66203 4.19675 2.67865 3.92811 2.94728C3.65948 3.21591 3.64287 3.64605 3.88998 3.9346L4.69725 4.74914C3.62555 6.2609 3.62555 8.28466 4.69725 9.79642L3.88998 10.611C3.68243 10.7887 3.59203 11.0678 3.65594 11.3334C3.71984 11.5991 3.92727 11.8066 4.19295 11.8705C4.45862 11.9344 4.7377 11.844 4.91543 11.6364L5.72998 10.8291C7.24173 11.9009 9.2655 11.9009 10.7773 10.8291L11.5918 11.6364C11.7695 11.844 12.0486 11.9344 12.3143 11.8705C12.58 11.8066 12.7874 11.5991 12.8513 11.3334C12.9152 11.0678 12.8248 10.7887 12.6173 10.611L11.81 9.79642ZM5.34598 7.27265C5.34598 5.666 6.64843 4.36356 8.25507 4.36356C9.86172 4.36356 11.1642 5.666 11.1642 7.27265C11.1642 8.8793 9.86172 10.1817 8.25507 10.1817C6.64843 10.1817 5.34598 8.8793 5.34598 7.27265Z" fill="#5D81FF"/>
</svg>
