<svg width="17" height="16" viewBox="0 0 17 16" fill="none" xmlns="http://www.w3.org/2000/svg">
<path fill-rule="evenodd" clip-rule="evenodd" d="M14.0909 2.65076H13.3492V2.22062C13.3479 1.52379 13.0202 0.867842 12.4638 0.448348C11.9073 0.028853 11.1865 -0.105723 10.5162 0.0847448L2.02463 2.50986C1.89941 2.54899 1.78681 2.62065 1.69832 2.71751C0.702809 2.96 0.00163039 3.85102 0 4.87564V13.7751C0 15.0039 0.996109 16 2.22487 16H14.0909C15.3196 16 16.3157 15.0039 16.3157 13.7751V4.87564C16.3157 3.64687 15.3196 2.65076 14.0909 2.65076ZM10.9245 1.50872C11.1527 1.44456 11.3978 1.49334 11.584 1.63998C11.7703 1.78663 11.8752 2.01347 11.8663 2.25035V2.68049H6.94196L10.9245 1.50872ZM14.8326 10.067H12.6077C12.1981 10.067 11.8661 9.73499 11.8661 9.3254C11.8661 8.91581 12.1981 8.58378 12.6077 8.58378H14.8326V10.067ZM14.8325 7.10056H12.7189C11.6171 7.07241 10.6513 7.83257 10.4198 8.91013C10.296 9.56163 10.4693 10.2344 10.8925 10.745C11.3156 11.2557 11.9445 11.5509 12.6076 11.5503H14.8325V13.7752C14.8325 14.1848 14.5005 14.5168 14.0909 14.5168H2.22488C1.8153 14.5168 1.48326 14.1848 1.48326 13.7752V4.87569C1.48326 4.4661 1.8153 4.13407 2.22488 4.13407H14.0909C14.5005 4.13407 14.8325 4.4661 14.8325 4.87569V7.10056Z" fill="#74B356"/>
</svg>
