<svg width="16" height="16" viewBox="0 0 16 16" fill="none" xmlns="http://www.w3.org/2000/svg">
<path fill-rule="evenodd" clip-rule="evenodd" d="M0 8C0 3.58172 3.58172 0 8 0C10.1217 0 12.1566 0.842855 13.6569 2.34315C15.1571 3.84344 16 5.87827 16 8C16 12.4183 12.4183 16 8 16C3.58172 16 0 12.4183 0 8ZM1.45647 7.99997C1.45647 11.6149 4.38697 14.5454 8.00193 14.5454C11.6169 14.5454 14.5474 11.6149 14.5474 7.99997C14.5474 4.38502 11.6169 1.45452 8.00193 1.45452C4.38697 1.45452 1.45647 4.38502 1.45647 7.99997Z" fill="#5D81FF"/>
<path d="M10.9098 7.37451H8.72798V3.63633C8.72798 3.23467 8.40237 2.90906 8.00071 2.90906C7.59905 2.90906 7.27344 3.23467 7.27344 3.63633V7.99997C7.27344 7.99997 7.27344 8.03633 7.27344 8.05088C7.27344 8.06542 7.27344 8.05088 7.27344 8.10179C7.27344 8.50345 7.59905 8.82906 8.00071 8.82906H10.9098C11.3115 8.82906 11.6371 8.50345 11.6371 8.10179C11.6371 7.70012 11.3115 7.37451 10.9098 7.37451Z" fill="#5D81FF"/>
</svg>
