<svg width="20" height="20" viewBox="0 0 20 20" fill="none" xmlns="http://www.w3.org/2000/svg">
<path d="M17.0703 7.07031C16.7467 7.07031 16.4844 7.33266 16.4844 7.65625V8.24219H15.3125V7.65625C15.3125 7.33266 15.0502 7.07031 14.7266 7.07031H13.7974L12.7971 6.07004C12.6872 5.96016 12.5382 5.89844 12.3828 5.89844H11.7969V4.72656H12.3828C12.7064 4.72656 12.9688 4.46422 12.9688 4.14062C12.9688 3.81703 12.7064 3.55469 12.3828 3.55469H6.44531C6.12172 3.55469 5.85938 3.81703 5.85938 4.14062C5.85938 4.46422 6.12172 4.72656 6.44531 4.72656H7.03125V5.89844H6.44531C6.28988 5.89844 6.1409 5.96016 6.03102 6.07004L5.03074 7.07031H2.92969C2.60609 7.07031 2.34375 7.33266 2.34375 7.65625V10H1.17188V7.65625C1.17188 7.33266 0.909531 7.07031 0.585938 7.07031C0.262344 7.07031 0 7.33266 0 7.65625V13.5156C0 13.8392 0.262344 14.1016 0.585938 14.1016C0.909531 14.1016 1.17188 13.8392 1.17188 13.5156V11.1719H2.34375V13.5156C2.34375 13.8392 2.60609 14.1016 2.92969 14.1016H5.03074L7.20289 16.2737C7.31277 16.3836 7.46176 16.4453 7.61719 16.4453H13.5547C13.7766 16.4453 13.9795 16.3199 14.0788 16.1214L15.0887 14.1016H16.4844V14.6875C16.4844 15.0111 16.7467 15.2734 17.0703 15.2734C18.6857 15.2734 20 13.9592 20 12.3438V10C20 8.38457 18.6857 7.07031 17.0703 7.07031ZM4.6875 12.9297H3.51562V8.24219H4.6875V12.9297ZM8.20312 4.72656H10.625V5.89844H8.20312V4.72656ZM14.1406 13.3773L13.1925 15.2734H7.85988L5.85938 13.2729V7.89895L6.68801 7.07031C6.92633 7.07031 11.93 7.07031 12.1401 7.07031L13.1404 8.07059C13.2503 8.18047 13.3993 8.24219 13.5547 8.24219H14.1406C14.1406 8.48176 14.1406 13.1866 14.1406 13.3773ZM16.4844 12.9297H15.3125V9.41406H16.4844V12.9297ZM18.8281 12.3438C18.8281 13.1077 18.3383 13.7593 17.6562 14.0012C17.6562 13.5897 17.6562 8.49773 17.6562 8.34262C18.3383 8.58445 18.8281 9.23609 18.8281 10V12.3438Z" fill="white"/>
<path d="M11.2105 10.586H9.81485L10.5627 9.09019C10.7075 8.80073 10.5901 8.44878 10.3007 8.30405C10.0113 8.15933 9.6593 8.27667 9.51457 8.56608L8.3427 10.9098C8.14836 11.2985 8.43125 11.7579 8.86676 11.7579H10.2624L9.51453 13.2536C9.36981 13.5431 9.48715 13.895 9.77657 14.0398C10.0661 14.1845 10.418 14.067 10.5627 13.7777L11.7346 11.434C11.9289 11.0453 11.646 10.586 11.2105 10.586Z" fill="white"/>
</svg>
