<svg width="13" height="17" viewBox="0 0 13 17" fill="none" xmlns="http://www.w3.org/2000/svg">
<path d="M4.91699 7.70841C4.91699 7.49845 5.0004 7.29709 5.14887 7.14862C5.29733 7.00016 5.4987 6.91675 5.70866 6.91675H7.29199C7.50195 6.91675 7.70332 7.00016 7.85178 7.14862C8.00025 7.29709 8.08366 7.49845 8.08366 7.70841C8.08366 7.91838 8.00025 8.11974 7.85178 8.26821C7.70332 8.41667 7.50195 8.50008 7.29199 8.50008H5.70866C5.4987 8.50008 5.29733 8.41667 5.14887 8.26821C5.0004 8.11974 4.91699 7.91838 4.91699 7.70841Z" fill="#F8F8F8"/>
<path d="M4.12565 11.6667C3.91569 11.6667 3.71432 11.7502 3.56586 11.8986C3.41739 12.0471 3.33398 12.2485 3.33398 12.4584C3.33398 12.6684 3.41739 12.8697 3.56586 13.0182C3.71432 13.1667 3.91569 13.2501 4.12565 13.2501H8.87565C9.08561 13.2501 9.28698 13.1667 9.43544 13.0182C9.58391 12.8697 9.66732 12.6684 9.66732 12.4584C9.66732 12.2485 9.58391 12.0471 9.43544 11.8986C9.28698 11.7502 9.08561 11.6667 8.87565 11.6667H4.12565Z" fill="#F8F8F8"/>
<path d="M3.43182 4.54171H3.33366V2.95837C3.33366 2.32848 3.58388 1.72439 4.02928 1.279C4.47468 0.833597 5.07877 0.583374 5.70866 0.583374H7.29199C7.92188 0.583374 8.52597 0.833597 8.97137 1.279C9.41677 1.72439 9.66699 2.32848 9.66699 2.95837V4.54171H9.56883C10.5584 5.08959 11.3831 5.89255 11.9573 6.86712C12.5315 7.84168 12.8341 8.95226 12.8337 10.0834V14.0417C12.8337 14.6716 12.5834 15.2757 12.138 15.7211C11.6926 16.1665 11.0885 16.4167 10.4587 16.4167H2.54199C1.9121 16.4167 1.30801 16.1665 0.862614 15.7211C0.417215 15.2757 0.166992 14.6716 0.166992 14.0417V10.0834C0.166992 7.69887 1.48433 5.62154 3.43182 4.54171ZM4.91699 2.95837V3.94954C5.95558 3.68188 7.04507 3.68188 8.08366 3.94954V2.95837C8.08366 2.74841 8.00025 2.54705 7.85178 2.39858C7.70332 2.25011 7.50196 2.16671 7.29199 2.16671H5.70866C5.4987 2.16671 5.29733 2.25011 5.14887 2.39858C5.0004 2.54705 4.91699 2.74841 4.91699 2.95837ZM1.75033 10.0834V14.0417C1.75033 14.2517 1.83373 14.453 1.9822 14.6015C2.13067 14.75 2.33203 14.8334 2.54199 14.8334H10.4587C10.6686 14.8334 10.87 14.75 11.0185 14.6015C11.1669 14.453 11.2503 14.2517 11.2503 14.0417V10.0834C11.2503 8.8236 10.7499 7.61541 9.85908 6.72462C8.96829 5.83382 7.7601 5.33337 6.50033 5.33337C5.24055 5.33337 4.03237 5.83382 3.14157 6.72462C2.25077 7.61541 1.75033 8.8236 1.75033 10.0834Z" fill="#F8F8F8"/>
</svg>
