<svg width="17" height="17" viewBox="0 0 17 17" fill="none" xmlns="http://www.w3.org/2000/svg">
<path d="M3.54167 4.95833C3.91739 4.95833 4.27772 4.80908 4.5434 4.5434C4.80908 4.27772 4.95833 3.91739 4.95833 3.54167C4.95833 3.16594 4.80908 2.80561 4.5434 2.53993C4.27772 2.27426 3.91739 2.125 3.54167 2.125C3.16594 2.125 2.80561 2.27426 2.53993 2.53993C2.27426 2.80561 2.125 3.16594 2.125 3.54167C2.125 3.91739 2.27426 4.27772 2.53993 4.5434C2.80561 4.80908 3.16594 4.95833 3.54167 4.95833Z" fill="#F8F8F8"/>
<path d="M8.49967 4.95833C8.8754 4.95833 9.23573 4.80908 9.50141 4.5434C9.76708 4.27772 9.91634 3.91739 9.91634 3.54167C9.91634 3.16594 9.76708 2.80561 9.50141 2.53993C9.23573 2.27426 8.8754 2.125 8.49967 2.125C8.12395 2.125 7.76362 2.27426 7.49794 2.53993C7.23226 2.80561 7.08301 3.16594 7.08301 3.54167C7.08301 3.91739 7.23226 4.27772 7.49794 4.5434C7.76362 4.80908 8.12395 4.95833 8.49967 4.95833Z" fill="#F8F8F8"/>
<path d="M13.4587 4.95833C13.8344 4.95833 14.1947 4.80908 14.4604 4.5434C14.7261 4.27772 14.8753 3.91739 14.8753 3.54167C14.8753 3.16594 14.7261 2.80561 14.4604 2.53993C14.1947 2.27426 13.8344 2.125 13.4587 2.125C13.0829 2.125 12.7226 2.27426 12.4569 2.53993C12.1912 2.80561 12.042 3.16594 12.042 3.54167C12.042 3.91739 12.1912 4.27772 12.4569 4.5434C12.7226 4.80908 13.0829 4.95833 13.4587 4.95833Z" fill="#F8F8F8"/>
<path d="M3.54167 9.91671C3.91739 9.91671 4.27772 9.76745 4.5434 9.50177C4.80908 9.2361 4.95833 8.87576 4.95833 8.50004C4.95833 8.12432 4.80908 7.76398 4.5434 7.49831C4.27772 7.23263 3.91739 7.08337 3.54167 7.08337C3.16594 7.08337 2.80561 7.23263 2.53993 7.49831C2.27426 7.76398 2.125 8.12432 2.125 8.50004C2.125 8.87576 2.27426 9.2361 2.53993 9.50177C2.80561 9.76745 3.16594 9.91671 3.54167 9.91671Z" fill="#F8F8F8"/>
<path d="M8.49967 9.91671C8.8754 9.91671 9.23573 9.76745 9.50141 9.50177C9.76708 9.2361 9.91634 8.87576 9.91634 8.50004C9.91634 8.12432 9.76708 7.76398 9.50141 7.49831C9.23573 7.23263 8.8754 7.08337 8.49967 7.08337C8.12395 7.08337 7.76362 7.23263 7.49794 7.49831C7.23226 7.76398 7.08301 8.12432 7.08301 8.50004C7.08301 8.87576 7.23226 9.2361 7.49794 9.50177C7.76362 9.76745 8.12395 9.91671 8.49967 9.91671Z" fill="#F8F8F8"/>
<path d="M13.4587 9.91671C13.8344 9.91671 14.1947 9.76745 14.4604 9.50177C14.7261 9.2361 14.8753 8.87576 14.8753 8.50004C14.8753 8.12432 14.7261 7.76398 14.4604 7.49831C14.1947 7.23263 13.8344 7.08337 13.4587 7.08337C13.0829 7.08337 12.7226 7.23263 12.4569 7.49831C12.1912 7.76398 12.042 8.12432 12.042 8.50004C12.042 8.87576 12.1912 9.2361 12.4569 9.50177C12.7226 9.76745 13.0829 9.91671 13.4587 9.91671Z" fill="#F8F8F8"/>
<path d="M3.54167 14.875C3.91739 14.875 4.27772 14.7257 4.5434 14.46C4.80908 14.1944 4.95833 13.834 4.95833 13.4583C4.95833 13.0826 4.80908 12.7222 4.5434 12.4566C4.27772 12.1909 3.91739 12.0416 3.54167 12.0416C3.16594 12.0416 2.80561 12.1909 2.53993 12.4566C2.27426 12.7222 2.125 13.0826 2.125 13.4583C2.125 13.834 2.27426 14.1944 2.53993 14.46C2.80561 14.7257 3.16594 14.875 3.54167 14.875Z" fill="#F8F8F8"/>
<path d="M8.49967 14.875C8.8754 14.875 9.23573 14.7257 9.50141 14.46C9.76708 14.1944 9.91634 13.834 9.91634 13.4583C9.91634 13.0826 9.76708 12.7222 9.50141 12.4566C9.23573 12.1909 8.8754 12.0416 8.49967 12.0416C8.12395 12.0416 7.76362 12.1909 7.49794 12.4566C7.23226 12.7222 7.08301 13.0826 7.08301 13.4583C7.08301 13.834 7.23226 14.1944 7.49794 14.46C7.76362 14.7257 8.12395 14.875 8.49967 14.875Z" fill="#F8F8F8"/>
<path d="M13.4587 14.875C13.8344 14.875 14.1947 14.7257 14.4604 14.46C14.7261 14.1944 14.8753 13.834 14.8753 13.4583C14.8753 13.0826 14.7261 12.7222 14.4604 12.4566C14.1947 12.1909 13.8344 12.0416 13.4587 12.0416C13.0829 12.0416 12.7226 12.1909 12.4569 12.4566C12.1912 12.7222 12.042 13.0826 12.042 13.4583C12.042 13.834 12.1912 14.1944 12.4569 14.46C12.7226 14.7257 13.0829 14.875 13.4587 14.875Z" fill="#F8F8F8"/>
</svg>
