<svg width="15" height="21" viewBox="0 0 15 21" fill="none" xmlns="http://www.w3.org/2000/svg">
<path d="M10.5 6C10.5 4.34315 9.15685 3 7.5 3C5.84315 3 4.5 4.34315 4.5 6V9.75C4.5 11.4069 5.84315 12.75 7.5 12.75C9.15685 12.75 10.5 11.4069 10.5 9.75V6Z" stroke="#F8F8F8" stroke-width="1.3" stroke-linecap="round" stroke-linejoin="round"/>
<path d="M12 13.719C11.4375 14.3581 10.7452 14.8699 9.96918 15.2201C9.19318 15.5704 8.35138 15.751 7.5 15.75C6.64862 15.751 5.80682 15.5704 5.03082 15.2201C4.25482 14.8699 3.56246 14.3581 3 13.719" stroke="#F8F8F8" stroke-width="1.3" stroke-linecap="round" stroke-linejoin="round"/>
<path d="M7.5 15.75V18" stroke="#F8F8F8" stroke-width="1.3" stroke-linecap="round" stroke-linejoin="round"/>
<path d="M6 18H9" stroke="#F8F8F8" stroke-width="1.3" stroke-linecap="round" stroke-linejoin="round"/>
</svg>
