<svg width="14" height="15" viewBox="0 0 14 15" fill="none" xmlns="http://www.w3.org/2000/svg">
<path fill-rule="evenodd" clip-rule="evenodd" d="M9.33949 7.31026C10.713 6.23431 11.2528 4.40552 10.6837 2.75615C10.1146 1.10678 8.56193 0 6.81715 0C5.07236 0 3.51965 1.10678 2.95055 2.75615C2.38145 4.40552 2.92126 6.23431 4.2948 7.31026C1.70399 8.34209 0.00287787 10.8479 0 13.6366V14.3183C0 14.6948 0.305214 15 0.681715 15C1.05822 15 1.36343 14.6948 1.36343 14.3183V13.6366C1.36343 10.6246 3.80514 8.18286 6.81715 8.18286C9.82915 8.18286 12.2709 10.6246 12.2709 13.6366V14.3183C12.2709 14.6948 12.5761 15 12.9526 15C13.3291 15 13.6343 14.6948 13.6343 14.3183V13.6366C13.6314 10.8479 11.9303 8.34209 9.33949 7.31026ZM4.08875 4.0926C4.08875 2.58659 5.3096 1.36574 6.8156 1.36574C8.3216 1.36574 9.54246 2.58659 9.54246 4.0926C9.54246 5.5986 8.3216 6.81945 6.8156 6.81945C6.0924 6.81945 5.39881 6.53216 4.88742 6.02078C4.37604 5.50939 4.08875 4.8158 4.08875 4.0926Z" fill="#5D81FF"/>
</svg>
